HIERARCHY
ROOT Hips
{
	OFFSET 0.000000 0.000000 0.000000
	CHANNELS 6 Xposition Yposition Zposition Zrotation Yrotation Xrotation 
	JOINT LeftUpLeg_virtual
	{
		OFFSET 0.000000 0.000000 0.000000
		CHANNELS 3 Zrotation Yrotation Xrotation
		JOINT LeftUpLeg
		{
			OFFSET 8.479694 -4.795517 -0.379053
			CHANNELS 3 Zrotation Yrotation Xrotation
			JOINT LeftLeg
			{
				OFFSET 0.485052 -32.551468 0.112863
				CHANNELS 3 Zrotation Yrotation Xrotation
				JOINT LeftFoot
				{
					OFFSET 0.438033 -32.635670 -3.012641
					CHANNELS 3 Zrotation Yrotation Xrotation
					JOINT LeftToeBase
					{
						OFFSET 0.970169 -13.225353 11.864223
						CHANNELS 3 Zrotation Yrotation Xrotation
						End Site
						{
							OFFSET 0.000000 0.000000 0.000000
						}
					}
				}
			}
		}
	}
	JOINT RightUpLeg_virtual
	{
		OFFSET 0.000000 0.000000 0.000000
		CHANNELS 3 Zrotation Yrotation Xrotation
		JOINT RightUpLeg
		{
			OFFSET -8.479694 -4.795517 -0.379053
			CHANNELS 3 Zrotation Yrotation Xrotation
			JOINT RightLeg
			{
				OFFSET -0.484100 -32.551483 0.112903
				CHANNELS 3 Zrotation Yrotation Xrotation
				JOINT RightFoot
				{
					OFFSET -0.438985 -32.635651 -3.012681
					CHANNELS 3 Zrotation Yrotation Xrotation
					JOINT RightToeBase
					{
						OFFSET -0.970169 -13.225354 11.864223
						CHANNELS 3 Zrotation Yrotation Xrotation
						End Site
						{
							OFFSET 0.000000 0.000000 0.000000
						}
					}
				}
			}
		}
	}
	JOINT Spine_virtual
	{
		OFFSET 0.000000 0.000000 0.000000
		CHANNELS 3 Zrotation Yrotation Xrotation
		JOINT Spine
		{
			OFFSET 0.000000 7.722015 1.166203
			CHANNELS 3 Zrotation Yrotation Xrotation
			JOINT Spine1
			{
				OFFSET 0.000000 12.024086 0.248766
				CHANNELS 3 Zrotation Yrotation Xrotation
				JOINT Spine2
				{
					OFFSET -0.000000 11.503036 -0.491240
					CHANNELS 3 Zrotation Yrotation Xrotation
					JOINT Neck_virtual
					{
						OFFSET 0.000000 0.000000 0.000000
						CHANNELS 3 Zrotation Yrotation Xrotation
						JOINT Neck
						{
							OFFSET 0.000000 18.430687 -3.123054
							CHANNELS 3 Zrotation Yrotation Xrotation
							JOINT Head
							{
								OFFSET -0.000000 9.051071 1.034021
								CHANNELS 3 Zrotation Yrotation Xrotation
								End Site
								{
									OFFSET 0.000000 0.000000 0.000000
								}
							}
						}
					}
					JOINT LeftShoulder_virtual
					{
						OFFSET 0.000000 0.000000 0.000000
						CHANNELS 3 Zrotation Yrotation Xrotation
						JOINT LeftShoulder
						{
							OFFSET 6.197824 13.665230 -4.064723
							CHANNELS 3 Zrotation Yrotation Xrotation
							JOINT LeftArm
							{
								OFFSET 7.778132 -0.187073 -1.709282
								CHANNELS 3 Zrotation Yrotation Xrotation
								JOINT LeftForeArm
								{
									OFFSET 21.954697 0.000000 -2.041093
									CHANNELS 3 Zrotation Yrotation Xrotation
									JOINT LeftHand
									{
										OFFSET 22.992908 0.000000 -0.870901
										CHANNELS 3 Zrotation Yrotation Xrotation
										End Site
										{
											OFFSET 0.000000 0.000000 0.000000
										}
									}
								}
							}
						}
					}
					JOINT RightShoulder_virtual
					{
						OFFSET 0.000000 0.000000 0.000000
						CHANNELS 3 Zrotation Yrotation Xrotation
						JOINT RightShoulder
						{
							OFFSET -6.197824 13.665230 -4.064723
							CHANNELS 3 Zrotation Yrotation Xrotation
							JOINT RightArm
							{
								OFFSET -7.778132 -0.187073 -1.709282
								CHANNELS 3 Zrotation Yrotation Xrotation
								JOINT RightForeArm
								{
									OFFSET -21.954697 0.000000 -2.041093
									CHANNELS 3 Zrotation Yrotation Xrotation
									JOINT RightHand
									{
										OFFSET -22.992908 0.000000 -0.870901
										CHANNELS 3 Zrotation Yrotation Xrotation
										End Site
										{
											OFFSET 0.000000 0.000000 0.000000
										}
									}
								}
							}
						}
					}
				}
			}
		}
	}
}
MOTION
Frames: 10
Frame Time: 0.033333
-9.234426 80.612259 72.217842 179.973026 3.891572 -179.944503 -4.719922 -3.734849 8.738173 -0.120720 4.878973 -27.299486 9.851698 8.576136 29.851311 -2.820533 -7.358240 -8.724285 0.000000 0.000000 0.000000 -0.541286 -3.960149 7.409691 -4.391226 2.076424 -26.537720 -0.170914 4.560105 30.896969 10.607001 8.135830 -7.506209 0.000000 0.000000 0.000000 1.218447 -0.996997 -4.605760 1.071964 1.804769 -0.031963 -1.838690 -1.676677 8.477072 0.040091 0.003338 -0.024753 -2.285749 -0.105483 9.947429 0.654249 -3.168032 -9.664923 0.000000 0.000000 0.000000 -0.660444 0.264037 7.452166 -9.515875 -5.036361 4.344178 -60.667666 -6.441834 7.347039 0.355032 -39.190205 10.170339 0.000000 0.000000 0.000000 -4.791530 1.824354 6.938503 25.366894 -2.603896 0.735778 51.918269 0.586251 22.280564 -6.356034 29.873523 -4.586869 0.000000 0.000000 0.000000 
-8.372013 80.648407 71.981911 -179.977984 3.257086 -179.867936 -4.415752 -3.581095 8.901808 0.426118 4.723964 -27.207294 9.957547 8.585543 29.677694 -2.760313 -7.189684 -8.280569 0.000000 0.000000 0.000000 -0.302025 -3.731900 7.627890 -3.795842 1.939730 -26.233042 0.083168 4.628994 31.162892 10.757340 8.571995 -8.001083 0.000000 0.000000 0.000000 1.350946 -0.734226 -4.699570 0.869464 1.823027 -0.168661 -1.748731 -1.652821 8.512297 0.033175 -0.100191 0.048475 -2.270576 -0.278513 10.006784 0.671807 -3.050117 -9.668327 0.000000 0.000000 0.000000 -0.624872 0.235857 7.489221 -9.310939 -5.027983 4.301730 -60.294540 -6.575105 6.646278 0.109405 -39.698733 10.413695 0.000000 0.000000 0.000000 -4.813467 1.761894 6.952660 25.496876 -2.614174 0.787065 52.056567 0.469197 22.332861 -6.391519 30.270183 -4.750046 0.000000 0.000000 0.000000 
-7.283787 80.703827 71.693352 179.996590 2.157584 -179.923452 -4.160274 -3.198889 8.963098 1.249469 4.469541 -26.827115 9.411500 8.186925 29.190128 -3.522900 -7.797368 -8.035298 0.000000 0.000000 0.000000 -0.086044 -3.646208 7.888723 -3.084928 1.679550 -25.871809 -0.202656 4.137202 31.267681 9.925120 8.167301 -8.648616 0.000000 0.000000 0.000000 1.400372 -0.544194 -4.773562 0.472497 1.757457 -0.257291 -1.612046 -1.689849 8.598671 0.019915 0.022722 0.045516 -2.112540 -0.322237 10.094430 0.825630 -3.131469 -9.534164 0.000000 0.000000 0.000000 -0.489508 0.182411 7.513655 -8.822916 -5.105019 4.240487 -59.894988 -6.541775 5.832460 -0.031315 -40.880099 10.562567 0.000000 0.000000 0.000000 -4.645170 1.689567 7.003947 25.713618 -2.580708 0.683642 52.378255 0.459537 22.450499 -6.300784 30.671955 -4.818589 0.000000 0.000000 0.000000 
-6.135671 80.746620 71.447014 179.994582 0.845694 -179.896924 -3.881846 -2.826312 8.858684 2.145349 4.338418 -26.345640 8.773651 7.907548 28.506227 -4.470493 -8.491952 -7.605484 0.000000 0.000000 0.000000 0.209397 -3.330003 8.080171 -2.271402 1.501973 -25.576781 -0.585464 3.589855 31.379552 8.798065 7.595691 -9.334708 0.000000 0.000000 0.000000 1.520642 -0.497767 -4.936730 -0.032947 1.660857 -0.374695 -1.417198 -1.754497 8.647969 0.020808 -0.020803 0.032410 -1.943678 -0.351461 10.218673 1.005481 -3.174565 -9.334107 0.000000 0.000000 0.000000 -0.255544 0.261235 7.555168 -8.432552 -5.071709 4.205647 -59.445418 -6.347482 4.693366 -0.555248 -42.305707 11.089553 0.000000 0.000000 0.000000 -4.427609 1.794110 7.079284 25.934778 -2.286008 0.685149 52.729228 0.701574 22.512317 -6.213391 31.021483 -4.897835 0.000000 0.000000 0.000000 
-5.024209 80.757805 71.321968 179.965280 -0.593652 -179.881911 -3.652651 -2.814891 8.686125 3.183315 3.671217 -25.884593 8.123741 7.686585 27.822726 -5.077876 -8.928276 -7.171887 0.000000 0.000000 0.000000 0.474102 -3.338922 8.189400 -1.565100 1.619479 -25.247272 -0.889630 3.043197 31.456224 7.617470 7.104245 -10.117635 0.000000 0.000000 0.000000 1.704775 -0.599490 -5.086537 -0.556840 1.686951 -0.408113 -1.215126 -1.769709 8.720721 0.015895 -0.031309 0.062065 -1.697685 -0.347844 10.255469 1.359822 -3.310799 -9.120131 0.000000 0.000000 0.000000 -0.021547 0.133179 7.603096 -8.170303 -5.198249 4.176289 -59.043113 -6.123743 3.526083 -1.126461 -43.516699 11.613920 0.000000 0.000000 0.000000 -4.170762 1.621602 7.064650 26.142163 -1.964187 0.620587 53.057302 1.373500 22.579233 -6.069628 31.077320 -4.940094 0.000000 0.000000 0.000000 
-4.011463 80.745041 71.364288 179.891309 -1.552004 -179.887566 -3.525027 -2.971120 8.547832 4.186479 2.838305 -25.571299 7.526564 7.390116 27.380254 -5.092043 -8.978600 -6.803948 0.000000 0.000000 0.000000 0.722314 -3.583087 8.094117 -0.976949 1.623817 -25.007544 -0.957510 2.801016 31.584379 6.496970 6.809220 -10.745332 0.000000 0.000000 0.000000 1.937591 -0.916281 -5.149805 -1.023407 1.775056 -0.373499 -1.105212 -1.791697 8.788443 -0.009312 -0.065815 0.014654 -1.489722 -0.340002 10.327569 1.747293 -3.372337 -8.890910 0.000000 0.000000 0.000000 0.205592 0.131440 7.663029 -8.169275 -5.171070 4.156594 -58.736430 -5.924592 2.593365 -1.586996 -44.089643 12.023225 0.000000 0.000000 0.000000 -3.924383 1.639232 7.103290 26.348057 -1.404324 0.678601 53.296871 2.474556 22.655637 -5.917886 30.852852 -4.974227 0.000000 0.000000 0.000000 
-3.123718 80.713913 71.545570 179.960294 -2.153868 -179.968928 -3.280312 -3.312490 8.474287 5.084490 2.134257 -25.654693 6.951789 7.069469 27.485699 -4.769869 -8.942735 -6.393053 0.000000 0.000000 0.000000 1.080420 -3.964607 7.924920 -0.526699 1.745431 -24.905084 -0.890866 2.726708 31.608302 5.537772 6.677715 -11.194221 0.000000 0.000000 0.000000 2.326882 -1.348405 -5.184763 -1.263855 1.952494 -0.249074 -1.017009 -1.783611 8.909428 0.021847 -0.022198 -0.013232 -1.479828 -0.462762 10.349534 2.233389 -3.489080 -8.604316 0.000000 0.000000 0.000000 0.192158 0.071865 7.685207 -8.318510 -5.077721 4.063552 -58.504641 -5.879026 1.884470 -2.064675 -44.021303 12.499244 0.000000 0.000000 0.000000 -3.869228 1.447279 7.181257 26.442135 -0.615952 0.558727 53.423937 3.801844 22.795743 -5.533197 30.452870 -4.762825 0.000000 0.000000 0.000000 
-2.476592 80.652885 71.756493 -179.920966 -2.301099 179.973968 -3.001421 -3.683110 8.541597 5.873674 1.504774 -26.258297 6.470157 6.757086 28.304977 -4.080330 -8.765485 -6.123329 0.000000 0.000000 0.000000 1.480394 -4.752717 7.774232 -0.322532 2.237144 -24.892647 -0.906059 2.761743 31.719849 4.840126 6.775558 -11.536207 0.000000 0.000000 0.000000 2.741554 -1.912240 -5.080362 -1.295785 2.159462 -0.263740 -1.043743 -1.822028 8.945340 -0.034483 -0.030059 -0.012244 -1.456445 -0.455142 10.410456 2.768652 -3.583072 -8.348066 0.000000 0.000000 0.000000 0.210220 0.114214 7.697095 -8.586149 -4.843617 3.931615 -58.309537 -5.909809 1.449583 -2.450992 -43.490065 12.847360 0.000000 0.000000 0.000000 -3.870810 1.591842 7.192876 26.542851 0.105758 0.677826 53.498860 5.333885 23.316811 -5.338434 30.064778 -4.676084 0.000000 0.000000 0.000000 
-2.074312 80.595840 71.937180 -179.871584 -2.033107 -179.958068 -2.735209 -4.286161 8.578479 6.430171 0.790157 -27.233632 6.042487 6.000397 29.884977 -3.333480 -8.662617 -5.911400 0.000000 0.000000 0.000000 1.777726 -5.281019 7.607378 -0.337502 2.940742 -25.031054 -0.881739 2.798400 31.737512 4.343316 7.037182 -11.719541 0.000000 0.000000 0.000000 3.051482 -2.436384 -5.090874 -1.147917 2.480501 -0.293829 -1.119968 -1.811650 9.064919 -0.029156 0.018854 -0.060736 -1.535213 -0.523152 10.585203 3.373605 -3.751186 -8.002735 0.000000 0.000000 0.000000 0.089494 0.015017 7.806093 -8.945920 -4.554813 3.885000 -58.151213 -5.950617 1.373066 -2.629890 -42.755977 13.113792 0.000000 0.000000 0.000000 -3.966326 1.536527 7.311249 26.596077 0.922668 0.898596 53.431692 6.848678 24.078797 -5.185928 29.864176 -4.587459 0.000000 0.000000 0.000000 
-1.836190 80.552650 72.065193 -179.813008 -1.733344 -179.974569 -2.547854 -4.860188 8.827512 7.089288 -0.380419 -28.661588 5.600639 5.167875 31.698785 -2.676454 -8.521826 -4.810860 0.000000 0.000000 0.000000 1.972123 -5.839479 7.502956 -0.424643 3.634286 -25.043286 -0.837491 2.789012 31.635688 3.982691 7.339256 -11.833701 0.000000 0.000000 0.000000 3.225065 -2.982215 -5.025034 -0.819953 2.786488 -0.336212 -1.200669 -1.852739 9.155972 -0.013723 0.011124 -0.034777 -1.689502 -0.699584 10.743830 3.966374 -3.371925 -7.586312 0.000000 0.000000 0.000000 -0.086026 -0.024871 7.878379 -9.272084 -4.060391 3.707458 -58.075002 -5.664269 1.561929 -2.858409 -41.990555 13.554594 0.000000 0.000000 0.000000 -4.141224 1.486396 7.426645 26.519140 1.677072 1.013790 53.194159 8.161959 24.858438 -4.927167 30.006268 -4.432705 0.000000 0.000000 0.000000 
